<?xml version="1.0" standalone="no"?>
<!DOCTYPE svg PUBLIC "-//W3C//DTD SVG 20010904//EN"
 "http://www.w3.org/TR/2001/REC-SVG-20010904/DTD/svg10.dtd">
<svg version="1.0" xmlns="http://www.w3.org/2000/svg"
 width="500.000000pt" height="155.000000pt" viewBox="0 0 500.000000 155.000000"
 preserveAspectRatio="xMidYMid meet">

<g transform="translate(0.000000,155.000000) scale(0.100000,-0.100000)"
fill="#000000" stroke="none">
<path d="M410 1450 l0 -100 225 0 225 0 0 -115 0 -115 115 0 115 0 0 215 0
215 -340 0 -340 0 0 -100z"/>
<path d="M3295 820 c0 -250 1 -353 2 -228 2 126 2 330 0 455 -1 126 -2 23 -2
-227z"/>
<path d="M1950 1184 c0 -8 5 -12 10 -9 6 4 8 11 5 16 -9 14 -15 11 -15 -7z"/>
<path d="M1952 1020 c0 -19 2 -27 5 -17 2 9 2 25 0 35 -3 9 -5 1 -5 -18z"/>
<path d="M1660 889 c0 -5 5 -7 10 -4 6 3 10 8 10 11 0 2 -4 4 -10 4 -5 0 -10
-5 -10 -11z"/>
<path d="M1778 893 c6 -2 18 -2 25 0 6 3 1 5 -13 5 -14 0 -19 -2 -12 -5z"/>
<path d="M2715 890 c3 -5 8 -10 11 -10 2 0 4 5 4 10 0 6 -5 10 -11 10 -5 0 -7
-4 -4 -10z"/>
<path d="M1952 775 c0 -16 2 -22 5 -12 2 9 2 23 0 30 -3 6 -5 -1 -5 -18z"/>
<path d="M2050 684 l0 -65 53 3 52 3 1 50 c1 28 -3 56 -9 63 -5 6 -29 12 -53
12 l-44 0 0 -66z m80 26 c0 -5 -11 -10 -25 -10 -14 0 -25 5 -25 10 0 6 11 10
25 10 14 0 25 -4 25 -10z m-2 -52 c-7 -20 -48 -23 -48 -4 0 11 9 16 26 16 16
0 24 -5 22 -12z"/>
<path d="M2180 685 c0 -58 2 -65 20 -65 18 0 20 7 20 65 0 58 -2 65 -20 65
-18 0 -20 -7 -20 -65z"/>
<path d="M2240 680 c0 -56 3 -70 15 -70 10 0 15 11 15 35 0 43 9 44 35 5 11
-16 28 -30 38 -30 14 0 17 10 17 65 0 59 -2 65 -21 65 -18 0 -21 -5 -17 -30 3
-16 2 -30 -2 -30 -3 0 -16 14 -28 30 -38 51 -52 40 -52 -40z"/>
<path d="M2380 700 c0 -62 27 -95 68 -85 38 9 52 32 52 87 0 41 -3 48 -20 48
-17 0 -20 -7 -20 -49 0 -28 -5 -53 -12 -57 -17 -11 -38 26 -38 68 0 27 -4 38
-15 38 -11 0 -15 -12 -15 -50z"/>
<path d="M2532 738 c-26 -26 -9 -62 32 -69 11 -2 21 -10 24 -18 3 -10 -3 -12
-26 -6 -18 4 -33 2 -37 -5 -9 -15 -5 -19 32 -26 64 -13 95 67 32 81 -37 8 -38
27 -1 23 19 -2 27 2 27 12 0 19 -65 26 -83 8z"/>
<path d="M1951 604 c0 -11 3 -14 6 -6 3 7 2 16 -1 19 -3 4 -6 -2 -5 -13z"/>
<path d="M2051 534 c-1 -38 19 -67 45 -63 15 3 19 13 20 49 l2 45 -7 -40 c-7
-46 -37 -62 -45 -23 -3 13 -7 32 -9 43 -3 13 -5 9 -6 -11z"/>
<path d="M2161 515 c1 -44 2 -46 8 -17 l6 34 19 -33 c11 -19 21 -28 24 -20 2
7 -2 18 -10 24 -9 7 -22 23 -32 37 -16 24 -16 24 -15 -25z"/>
<path d="M2212 540 c0 -14 2 -19 5 -12 2 6 2 18 0 25 -3 6 -5 1 -5 -13z"/>
<path d="M2263 515 c0 -27 2 -38 4 -22 2 15 2 37 0 50 -2 12 -4 0 -4 -28z"/>
<path d="M2316 515 c9 -25 19 -45 23 -45 9 0 34 80 28 87 -3 2 -8 -9 -12 -26
-9 -42 -22 -47 -30 -11 -4 16 -10 32 -15 35 -5 3 -2 -15 6 -40z"/>
<path d="M2400 515 c0 -44 0 -45 33 -44 30 2 30 2 5 6 -31 5 -38 29 -10 36 16
4 16 5 0 6 -29 2 -21 29 10 34 25 4 25 4 -5 6 -33 1 -33 0 -33 -44z"/>
<path d="M2491 513 c0 -35 3 -43 9 -28 4 11 6 30 3 43 -4 17 -1 22 15 22 26 0
37 -17 23 -34 -8 -9 -7 -17 2 -29 10 -15 12 -11 12 25 0 41 -1 43 -32 46 l-33
3 1 -48z"/>
<path d="M2597 553 c-15 -14 -6 -33 18 -39 35 -9 34 -38 -1 -31 -16 3 -22 1
-16 -5 15 -15 46 -5 50 15 2 11 -6 20 -22 27 -33 12 -34 34 -1 28 13 -3 22 -1
19 3 -6 11 -38 12 -47 2z"/>
<path d="M2683 515 c0 -27 2 -38 4 -22 2 15 2 37 0 50 -2 12 -4 0 -4 -28z"/>
<path d="M2732 553 c12 -3 18 -17 21 -46 l4 -42 1 42 c2 30 7 43 20 46 9 3 -1
5 -23 5 -22 0 -32 -2 -23 -5z"/>
<path d="M2824 538 c9 -15 17 -38 17 -50 1 -21 2 -21 6 -3 3 11 14 32 25 48
11 15 15 27 9 27 -6 0 -11 -3 -11 -7 0 -5 -4 -15 -9 -22 -8 -12 -13 -11 -31
10 l-22 24 16 -27z"/>
</g>
</svg>
