<?xml version="1.0" standalone="no"?>
<!DOCTYPE svg PUBLIC "-//W3C//DTD SVG 20010904//EN"
 "http://www.w3.org/TR/2001/REC-SVG-20010904/DTD/svg10.dtd">
<svg version="1.0" xmlns="http://www.w3.org/2000/svg"
 width="900.000000pt" height="900.000000pt" viewBox="0 0 900.000000 900.000000"
 preserveAspectRatio="xMidYMid meet">

<g transform="translate(0.000000,900.000000) scale(0.100000,-0.100000)"
fill="#000000" stroke="none">
<path d="M5295 4500 c0 -663 1 -934 2 -602 2 331 2 873 0 1205 -1 331 -2 60
-2 -603z"/>
<path d="M1642 5498 c-16 -16 -15 -33 4 -49 15 -12 16 -40 13 -251 -2 -137 0
-238 5 -238 5 0 8 101 7 235 -2 204 0 237 15 260 13 20 14 28 4 40 -15 18 -32
19 -48 3z"/>
<path d="M875 4720 c-11 -18 6 -50 25 -50 10 0 22 5 25 10 4 6 98 10 251 10
156 0 244 4 244 10 0 6 -88 10 -245 10 -157 0 -245 4 -245 10 0 13 -47 13 -55
0z"/>
<path d="M3665 4720 c-4 -7 -250 -10 -706 -10 -459 0 -699 -3 -699 -10 0 -7
238 -10 695 -10 509 0 700 -3 714 -12 26 -16 51 -3 51 27 0 20 -5 25 -24 25
-14 0 -28 -4 -31 -10z"/>
<path d="M1900 4700 c0 -5 20 -10 45 -10 25 0 45 5 45 10 0 6 -20 10 -45 10
-25 0 -45 -4 -45 -10z"/>
<path d="M1658 4203 c4 -213 3 -240 -12 -252 -34 -29 -6 -78 32 -54 23 14 25
29 7 47 -14 14 -16 46 -14 253 1 157 -1 238 -8 240 -7 3 -9 -72 -5 -234z"/>
<path d="M3235 4319 c-58 -18 -85 -54 -85 -113 0 -52 32 -81 118 -106 57 -17
72 -25 70 -38 -3 -14 -14 -17 -57 -16 -29 1 -58 7 -64 13 -18 18 -34 13 -55
-21 -26 -40 -19 -50 54 -73 126 -40 224 10 224 115 0 54 -27 78 -117 106 -43
13 -68 26 -68 35 0 20 67 24 104 5 30 -16 30 -16 55 21 24 34 24 37 8 49 -43
30 -129 41 -187 23z"/>
<path d="M1910 4141 l0 -181 113 0 c94 0 117 3 145 20 54 33 69 106 31 154
-20 25 -20 28 -5 45 24 26 20 75 -8 108 -24 28 -26 28 -150 31 l-126 4 0 -181z
m198 72 c3 -18 -3 -23 -31 -28 -54 -10 -72 -3 -75 28 -3 28 -3 28 50 25 46 -3
53 -6 56 -25z m6 -125 c20 -32 -4 -53 -60 -53 l-49 0 -3 38 -3 38 52 -3 c36
-2 55 -8 63 -20z"/>
<path d="M2260 4140 l0 -180 54 0 55 0 1 180 1 180 -56 0 -55 0 0 -180z"/>
<path d="M2412 4138 l3 -183 47 -3 47 -3 3 100 3 101 66 -92 c63 -90 67 -93
107 -96 l42 -3 0 180 0 181 -50 0 -49 0 -3 -86 -3 -85 -60 85 -60 85 -48 1
-47 0 2 -182z"/>
<path d="M2789 4208 c-1 -62 0 -124 1 -138 7 -78 82 -127 176 -115 29 3 64 15
79 27 47 37 55 66 55 208 l0 130 -50 0 -50 0 0 -120 c0 -107 -2 -122 -20 -140
-21 -21 -46 -25 -67 -12 -23 15 -33 65 -33 168 l0 104 -45 0 -45 0 -1 -112z"/>
<path d="M1920 3722 c0 -93 1 -100 26 -123 20 -19 36 -24 76 -24 75 0 88 21
88 146 0 92 -1 99 -20 99 -18 0 -20 -7 -20 -83 0 -92 -15 -127 -54 -127 -43 0
-56 28 -56 123 0 80 -2 87 -20 87 -19 0 -20 -7 -20 -98z"/>
<path d="M2338 3736 l-3 -81 -53 78 c-42 61 -58 77 -77 77 l-25 0 0 -120 0
-120 25 0 c23 0 24 2 27 82 l3 82 54 -82 c40 -61 59 -82 75 -82 21 0 22 3 21
122 0 118 -1 121 -22 123 -21 2 -22 -3 -25 -79z"/>
<path d="M2460 3695 c0 -123 0 -125 23 -125 22 0 22 1 19 117 -4 110 -9 132
-34 133 -5 0 -8 -56 -8 -125z"/>
<path d="M2575 3798 c4 -13 17 -52 30 -88 13 -36 29 -82 36 -102 10 -29 18
-38 36 -38 22 0 27 10 26 48 -1 7 2 11 5 8 6 -6 17 23 52 128 24 72 25 68 -2
64 -19 -2 -27 -18 -52 -98 l-29 -95 -31 95 c-27 81 -35 95 -54 98 -21 3 -23 1
-17 -20z"/>
<path d="M2840 3695 l0 -125 85 0 c78 0 85 2 85 20 0 16 -8 19 -62 22 l-63 3
0 35 c0 34 1 35 38 33 31 -2 37 1 37 17 0 15 -8 19 -37 22 -28 2 -39 8 -41 22
-6 27 14 34 74 29 53 -5 54 -5 54 21 l0 26 -85 0 -85 0 0 -125z"/>
<path d="M3080 3694 c0 -117 1 -124 20 -124 17 0 20 7 20 45 0 43 1 45 30 45
26 0 33 -6 51 -45 16 -35 27 -45 45 -45 29 0 29 1 3 51 l-20 41 20 22 c28 30
28 87 1 111 -16 14 -39 20 -95 21 l-75 3 0 -125z m148 53 c6 -30 -17 -47 -64
-47 -43 0 -44 1 -44 33 0 19 2 36 5 38 2 3 26 3 52 -1 35 -4 49 -10 51 -23z"/>
<path d="M3370 3808 c-20 -11 -26 -23 -28 -55 -3 -46 7 -56 83 -78 32 -10 40
-17 40 -36 0 -21 -4 -24 -40 -23 -22 0 -47 3 -55 7 -8 4 -22 2 -30 -3 -27 -17
12 -43 72 -48 69 -5 102 18 102 72 0 39 -20 62 -64 72 -46 10 -70 23 -70 39 0
20 46 30 77 16 21 -10 29 -9 40 2 12 12 12 16 -2 27 -22 18 -96 23 -125 8z"/>
<path d="M3580 3695 c0 -118 1 -125 20 -125 19 0 20 7 20 125 0 118 -1 125
-20 125 -19 0 -20 -7 -20 -125z"/>
<path d="M3690 3794 c0 -23 3 -25 33 -22 l32 3 3 -102 c2 -95 4 -103 22 -103
19 0 20 7 20 100 0 82 3 100 15 101 8 1 25 2 37 3 14 1 22 9 24 24 4 21 2 22
-91 22 l-95 0 0 -26z"/>
<path d="M3921 3798 c7 -12 27 -46 46 -75 26 -41 33 -62 33 -103 0 -47 2 -50
25 -50 24 0 25 3 25 55 0 48 6 64 45 125 44 69 45 70 20 70 -20 0 -31 -11 -56
-55 -17 -30 -32 -55 -34 -55 -2 0 -18 25 -35 55 -25 43 -37 55 -56 55 -22 0
-24 -2 -13 -22z"/>
</g>
</svg>
